<?xml version="1.0" encoding="utf-8"?>
<!-- Generator: Adobe Illustrator 16.0.4, SVG Export Plug-In . SVG Version: 6.00 Build 0)  -->
<!DOCTYPE svg PUBLIC "-//W3C//DTD SVG 1.1//EN" "http://www.w3.org/Graphics/SVG/1.1/DTD/svg11.dtd">
<svg version="1.1" id="Layer_1" xmlns="http://www.w3.org/2000/svg" xmlns:xlink="http://www.w3.org/1999/xlink" x="0px" y="0px"
	 width="164.843px" height="55.587px" viewBox="0 0 164.843 55.587" enable-background="new 0 0 164.843 55.587"
	 xml:space="preserve">
<path fill-rule="evenodd" clip-rule="evenodd" fill="#FFFFFF" d="M73.348,23.163L60.262,38.321
	c-0.592,0.685-0.339,1.244,0.568,1.244h3.057L51.128,54.343c-0.592,0.687-0.337,1.244,0.569,1.244h73.323
	c0.905,0,1.161-0.558,0.569-1.244l-12.76-14.777h3.353c0.905,0,1.161-0.558,0.568-1.244l-13.087-15.158h3.678
	c0.907,0,1.162-0.556,0.57-1.242L89.432,0.515c-0.593-0.688-1.554-0.686-2.146,0L68.806,21.921c-0.593,0.687-0.336,1.242,0.57,1.242
	H73.348z"/>
<path fill-rule="evenodd" clip-rule="evenodd" fill="#FFFFFF" d="M129.359,33.697l-8.835,10.233c-0.399,0.462-0.229,0.84,0.384,0.84
	h2.063l-8.614,9.977c-0.399,0.464-0.228,0.84,0.384,0.84h49.503c0.61,0,0.783-0.376,0.384-0.84l-8.614-9.977h2.264
	c0.61,0,0.783-0.377,0.384-0.84l-8.836-10.233h2.482c0.613,0,0.785-0.376,0.386-0.839l-12.476-14.452
	c-0.401-0.464-1.05-0.463-1.449,0l-12.477,14.452c-0.399,0.464-0.227,0.839,0.385,0.839H129.359z"/>
<path fill-rule="evenodd" clip-rule="evenodd" fill="#FFFFFF" d="M18.461,29.031L7.743,41.446c-0.484,0.56-0.277,1.019,0.466,1.019
	h2.503L0.262,54.568c-0.485,0.562-0.276,1.019,0.465,1.019h60.056c0.741,0,0.95-0.456,0.466-1.019L50.798,42.465h2.746
	c0.741,0,0.95-0.457,0.466-1.019L43.29,29.031h3.012c0.744,0,0.953-0.456,0.468-1.018L31.635,10.481
	c-0.487-0.563-1.273-0.562-1.758,0L14.74,28.013c-0.484,0.563-0.275,1.018,0.467,1.018H18.461z"/>
</svg>
