<?xml version="1.0" encoding="utf-8"?>
<!-- Generator: Adobe Illustrator 16.0.4, SVG Export Plug-In . SVG Version: 6.00 Build 0)  -->
<!DOCTYPE svg PUBLIC "-//W3C//DTD SVG 1.1//EN" "http://www.w3.org/Graphics/SVG/1.1/DTD/svg11.dtd">
<svg version="1.1" id="Layer_1" xmlns="http://www.w3.org/2000/svg" xmlns:xlink="http://www.w3.org/1999/xlink" x="0px" y="0px"
	 width="75px" height="55.587px" viewBox="0 0 75 55.587" enable-background="new 0 0 75 55.587" xml:space="preserve">
<path fill-rule="evenodd" clip-rule="evenodd" fill="#FFFFFF" d="M22.479,23.163L9.393,38.321c-0.592,0.685-0.339,1.244,0.568,1.244
	h3.057L0.259,54.343c-0.592,0.687-0.337,1.244,0.569,1.244H74.15c0.905,0,1.161-0.558,0.569-1.244L61.96,39.565h3.353
	c0.905,0,1.161-0.558,0.568-1.244L52.794,23.163h3.678c0.907,0,1.162-0.556,0.57-1.242L38.562,0.515
	c-0.593-0.688-1.554-0.686-2.146,0L17.937,21.921c-0.593,0.687-0.336,1.242,0.57,1.242H22.479z"/>
</svg>
