<?xml version="1.0" encoding="utf-8"?>
<!-- Generator: Adobe Illustrator 16.0.4, SVG Export Plug-In . SVG Version: 6.00 Build 0)  -->
<!DOCTYPE svg PUBLIC "-//W3C//DTD SVG 1.1//EN" "http://www.w3.org/Graphics/SVG/1.1/DTD/svg11.dtd">
<svg version="1.1" id="Layer_1" xmlns="http://www.w3.org/2000/svg" xmlns:xlink="http://www.w3.org/1999/xlink" x="0px" y="0px"
	 width="75.046px" height="34.043px" viewBox="0 21.543 75.046 34.043" enable-background="new 0 21.543 75.046 34.043"
	 xml:space="preserve">
<path fill="#FFFFFF" d="M42.857,35.729l-8.015,9.283c-0.362,0.42-0.208,0.762,0.348,0.762h1.872l-7.814,9.051
	c-0.363,0.421-0.207,0.762,0.348,0.762h44.906c0.554,0,0.711-0.342,0.349-0.762l-7.814-9.05h2.053c0.554,0,0.711-0.342,0.347-0.762
	l-8.014-9.283h2.252c0.555,0,0.712-0.341,0.349-0.761l-11.317-13.11c-0.363-0.421-0.952-0.42-1.314,0L40.075,34.968
	c-0.363,0.421-0.206,0.761,0.349,0.761H42.857z"/>
<path fill="#FFFFFF" d="M14.789,35.754l-8.005,9.271c-0.361,0.418-0.207,0.761,0.348,0.761h1.87l-7.805,9.039
	c-0.362,0.419-0.207,0.761,0.347,0.761h44.853c0.553,0,0.709-0.34,0.348-0.761l-7.806-9.039h2.051c0.554,0,0.71-0.341,0.348-0.761
	l-8.006-9.271h2.25c0.556,0,0.712-0.342,0.35-0.761L24.627,21.899c-0.363-0.42-0.951-0.419-1.313,0L12.01,34.994
	c-0.362,0.421-0.206,0.761,0.349,0.761H14.789z"/>
</svg>
