<?xml version="1.0" encoding="utf-8"?>
<!-- Generator: Adobe Illustrator 16.0.4, SVG Export Plug-In . SVG Version: 6.00 Build 0)  -->
<!DOCTYPE svg PUBLIC "-//W3C//DTD SVG 1.1//EN" "http://www.w3.org/Graphics/SVG/1.1/DTD/svg11.dtd">
<svg version="1.1" id="Capa_1" xmlns="http://www.w3.org/2000/svg" xmlns:xlink="http://www.w3.org/1999/xlink" x="0px" y="0px"
	 width="100px" height="100px" viewBox="0 0 100 100" enable-background="new 0 0 100 100" xml:space="preserve">
<g>
	<g>
		<path fill="#364C70" d="M50,0C22.388,0,0,22.388,0,50s22.388,50,50,50s50-22.388,50-50C100,22.381,77.612,0,50,0z M74.875,38.775
			l0.037,1.594c0,16.275-12.381,35.025-35.025,35.025c-6.95,0-13.418-2.037-18.869-5.531c0.963,0.112,1.944,0.175,2.938,0.175
			c5.769,0,11.075-1.969,15.288-5.269c-5.387-0.101-9.931-3.663-11.5-8.55c0.756,0.144,1.519,0.213,2.319,0.213
			c1.125,0,2.212-0.145,3.244-0.426c-5.631-1.137-9.875-6.106-9.875-12.068v-0.156c1.663,0.925,3.556,1.475,5.575,1.544
			c-3.3-2.206-5.475-5.975-5.475-10.244c0-2.256,0.606-4.369,1.662-6.188c6.069,7.45,15.144,12.35,25.375,12.862
			c-0.212-0.9-0.318-1.844-0.318-2.806c0-6.793,5.512-12.306,12.312-12.306c3.537,0,6.737,1.494,8.987,3.887
			c2.8-0.556,5.438-1.581,7.819-2.987c-0.92,2.875-2.869,5.288-5.413,6.812c2.481-0.294,4.862-0.963,7.069-1.938
			C79.375,34.881,77.281,37.05,74.875,38.775z"/>
	</g>
</g>
</svg>
