<?xml version="1.0" encoding="utf-8"?>
<!-- Generator: Adobe Illustrator 16.0.4, SVG Export Plug-In . SVG Version: 6.00 Build 0)  -->
<!DOCTYPE svg PUBLIC "-//W3C//DTD SVG 1.1//EN" "http://www.w3.org/Graphics/SVG/1.1/DTD/svg11.dtd">
<svg version="1.1" id="Capa_1" xmlns="http://www.w3.org/2000/svg" xmlns:xlink="http://www.w3.org/1999/xlink" x="0px" y="0px"
	 width="100px" height="100px" viewBox="0 0 100 100" enable-background="new 0 0 100 100" xml:space="preserve">
<g>
	<g>
		<g>
			<path d="M49.998,59.874c5.441,0,9.878-4.429,9.878-9.874c0-2.15-0.702-4.135-1.866-5.755c-1.795-2.489-4.711-4.119-8.006-4.119
				c-3.296,0-6.211,1.628-8.01,4.117c-1.168,1.62-1.864,3.605-1.866,5.755C40.122,55.443,44.554,59.874,49.998,59.874z"/>
			<polygon points="71.562,37.92 71.562,29.643 71.562,28.41 70.324,28.414 62.051,28.441 62.082,37.953 			"/>
			<path d="M50,0.674C22.803,0.674,0.674,22.803,0.674,50S22.803,99.326,50,99.326S99.326,77.197,99.326,50S77.201,0.674,50,0.674z
				 M78.053,44.245v22.967c0,5.981-4.863,10.845-10.843,10.845H32.789c-5.98,0-10.842-4.861-10.842-10.845V44.245V32.791
				c0-5.98,4.862-10.842,10.842-10.842h34.418c5.98,0,10.845,4.862,10.845,10.842L78.053,44.245L78.053,44.245z"/>
			<path d="M65.344,50c0,8.458-6.882,15.344-15.344,15.344c-8.461,0-15.342-6.886-15.342-15.344c0-2.035,0.405-3.979,1.127-5.755
				h-8.374v22.967c0,2.969,2.41,5.373,5.376,5.373h34.418c2.963,0,5.377-2.404,5.377-5.373V44.245h-8.379
				C64.933,46.02,65.344,47.965,65.344,50z"/>
		</g>
	</g>
</g>
</svg>
