<?xml version="1.0" encoding="utf-8"?>
<!-- Generator: Adobe Illustrator 16.0.4, SVG Export Plug-In . SVG Version: 6.00 Build 0)  -->
<!DOCTYPE svg PUBLIC "-//W3C//DTD SVG 1.1//EN" "http://www.w3.org/Graphics/SVG/1.1/DTD/svg11.dtd">
<svg version="1.1" id="Capa_1" xmlns="http://www.w3.org/2000/svg" xmlns:xlink="http://www.w3.org/1999/xlink" x="0px" y="0px"
	 width="100px" height="100px" viewBox="216.667 216.667 100 100" enable-background="new 216.667 216.667 100 100"
	 xml:space="preserve">
<g>
	<path d="M266.667,216.916c-27.476,0-49.751,22.274-49.751,49.751s22.274,49.751,49.751,49.751
		c27.476,0,49.751-22.274,49.751-49.751S294.142,216.916,266.667,216.916z M271.491,283.391c-4.521-0.352-6.418-2.59-9.96-4.743
		c-1.949,10.221-4.33,20.02-11.382,25.137c-2.178-15.447,3.196-27.048,5.691-39.364c-4.254-7.162,0.512-21.575,9.485-18.022
		c11.042,4.367-9.561,26.625,4.27,29.405c14.44,2.902,20.337-25.057,11.382-34.148c-12.938-13.128-37.663-0.3-34.623,18.497
		c0.741,4.595,5.487,5.989,1.898,12.331c-8.281-1.836-10.752-8.366-10.434-17.074c0.512-14.252,12.805-24.23,25.137-25.61
		c15.595-1.745,30.23,5.724,32.251,20.394C297.48,266.749,288.166,284.68,271.491,283.391z"/>
</g>
</svg>
