<?xml version="1.0" encoding="utf-8"?>
<!-- Generator: Adobe Illustrator 16.0.4, SVG Export Plug-In . SVG Version: 6.00 Build 0)  -->
<!DOCTYPE svg PUBLIC "-//W3C//DTD SVG 1.1//EN" "http://www.w3.org/Graphics/SVG/1.1/DTD/svg11.dtd">
<svg version="1.1" id="Capa_1" xmlns="http://www.w3.org/2000/svg" xmlns:xlink="http://www.w3.org/1999/xlink" x="0px" y="0px"
	 width="100px" height="100px" viewBox="0 0 100 100" enable-background="new 0 0 100 100" xml:space="preserve">
<g>
	<g>
		<g>
			<path fill="#333333" d="M50,0C22.388,0,0,22.388,0,50s22.388,50,50,50s50-22.388,50-50C100,22.381,77.612,0,50,0z M62.925,49.994
				L54.73,50l-0.006,30H43.481V50h-7.5V39.663l7.5-0.006l-0.012-6.087C43.469,25.131,45.756,20,55.688,20h8.275v10.344h-5.176
				c-3.869,0-4.057,1.444-4.057,4.138l-0.012,5.175h9.3L62.925,49.994z"/>
		</g>
	</g>
</g>
</svg>
