<?xml version="1.0" encoding="utf-8"?>
<!-- Generator: Adobe Illustrator 16.0.4, SVG Export Plug-In . SVG Version: 6.00 Build 0)  -->
<!DOCTYPE svg PUBLIC "-//W3C//DTD SVG 1.1//EN" "http://www.w3.org/Graphics/SVG/1.1/DTD/svg11.dtd">
<svg version="1.1" id="Layer_1" xmlns="http://www.w3.org/2000/svg" xmlns:xlink="http://www.w3.org/1999/xlink" x="0px" y="0px"
	 width="25px" height="25px" viewBox="10 10 25 25" enable-background="new 10 10 25 25" xml:space="preserve">
<path fill="#272525" d="M28.785,26.222l-0.685,0.668l-0.912-0.889c1.567-1.699,2.529-3.939,2.529-6.402
	c0-5.301-4.414-9.599-9.859-9.599C14.414,10,10,14.298,10,19.599s4.414,9.6,9.858,9.6c2.127,0,4.09-0.662,5.7-1.777l0.997,0.971
	l-0.572,0.558L32.197,35L35,32.271L28.785,26.222z M20.024,25.325c-3.248,0-5.88-2.565-5.88-5.727s2.633-5.725,5.88-5.725
	c3.248,0,5.88,2.563,5.88,5.725S23.271,25.325,20.024,25.325z"/>
</svg>
