<?xml version="1.0" encoding="utf-8"?>
<!-- Generator: Adobe Illustrator 16.0.4, SVG Export Plug-In . SVG Version: 6.00 Build 0)  -->
<!DOCTYPE svg PUBLIC "-//W3C//DTD SVG 1.1//EN" "http://www.w3.org/Graphics/SVG/1.1/DTD/svg11.dtd">
<svg version="1.1" id="Capa_1" xmlns="http://www.w3.org/2000/svg" xmlns:xlink="http://www.w3.org/1999/xlink" x="0px" y="0px"
	 width="100px" height="100px" viewBox="0 0 100 100" enable-background="new 0 0 100 100" xml:space="preserve">
<g>
	<g>
		<g>
			<g>
				<path fill="#364C70" d="M50,0C22.388,0,0,22.388,0,50s22.388,50,50,50s50-22.388,50-50C100,22.381,77.612,0,50,0z
					 M80.719,61.193c-0.338,4.162-3.5,9.476-7.919,10.244c-14.156,1.1-30.931,0.963-45.594,0c-4.575-0.575-7.581-6.088-7.918-10.244
					c-0.713-8.737-0.713-13.712,0-22.45c0.337-4.156,3.419-9.638,7.918-10.138c14.494-1.219,31.362-0.956,45.594,0
					c5.087,0.188,7.581,5.431,7.919,9.594C81.419,46.938,81.419,52.456,80.719,61.193z"/>
				<polygon fill="#364C70" points="43.75,62.5 62.5,50 43.75,37.5 				"/>
			</g>
		</g>
	</g>
</g>
</svg>
