<?xml version="1.0" encoding="utf-8"?>
<!-- Generator: Adobe Illustrator 16.0.4, SVG Export Plug-In . SVG Version: 6.00 Build 0)  -->
<!DOCTYPE svg PUBLIC "-//W3C//DTD SVG 1.1//EN" "http://www.w3.org/Graphics/SVG/1.1/DTD/svg11.dtd">
<svg version="1.1" id="Layer_1" xmlns="http://www.w3.org/2000/svg" xmlns:xlink="http://www.w3.org/1999/xlink" x="0px" y="0px"
	 width="110px" height="66.309px" viewBox="0.083 -24.176 110 66.309" enable-background="new 0.083 -24.176 110 66.309"
	 xml:space="preserve">
<g>
	<polygon fill="#121212" points="50.21,12.439 72.289,-9.932 94.492,12.439 108.195,12.439 72.289,-23.742 36.521,12.439 	"/>
	<polygon fill="#121212" points="53.498,-6.935 36.823,-23.742 0.917,12.442 14.621,12.442 36.823,-9.932 46.666,-0.013 	"/>
	<path fill="#121212" d="M0.639,15.815h7.553c2.047,3.214,4.09,6.321,6.131,9.336c2.054-3.205,4.115-6.307,6.171-9.336h7.554
		c-0.018,7.594-0.042,15.191-0.062,22.781c-2.37,0.187-4.744,0.397-7.113,0.629c0.015-4.479,0.027-8.963,0.038-13.442
		c-2.206,3.146-4.411,6.386-6.612,9.741c-0.051,0.01-0.099,0.01-0.148,0.019c-2.175-2.919-4.349-5.918-6.528-9.025
		c-0.006,4.755-0.012,9.513-0.02,14.269c-2.321,0.317-4.646,0.657-6.964,1.021V15.815z"/>
	<path fill="#121212" d="M31.583,15.815h7.186c-0.016,7.35-0.031,14.698-0.043,22.046c-2.4,0.108-4.803,0.239-7.2,0.398
		C31.542,30.779,31.562,23.297,31.583,15.815"/>
	<path fill="#121212" d="M42.691,15.815h7.147c-0.001,5.481-0.003,10.959-0.006,16.437c4.172-0.038,8.342-0.021,12.512,0.053
		c0.011,1.763,0.011,3.527,0.011,5.288c-6.565-0.151-13.13-0.121-19.694,0.087C42.671,30.391,42.684,23.105,42.691,15.815"/>
	<path fill="#121212" d="M65.385,15.815h20.747c0.006,1.817,0.012,3.634,0.012,5.451c-4.55-0.096-9.109-0.171-13.669-0.229
		c0,1.121,0.007,2.242,0.008,3.356c4.134,0.086,8.259,0.195,12.383,0.333c0.005,1.677,0.01,3.354,0.021,5.029
		c-4.132-0.214-8.261-0.391-12.394-0.519c0.004,1.173,0.008,2.342,0.008,3.515c4.626,0.184,9.249,0.434,13.87,0.751
		c0.003,1.818,0.011,3.636,0.012,5.454c-6.975-0.629-13.965-1.06-20.958-1.276C65.409,30.391,65.399,23.105,65.385,15.815"/>
	<path fill="#121212" d="M88.043,36.859c1.42-1.396,2.839-2.807,4.265-4.242c2.199,1.863,4.284,3.075,6.549,3.299
		c2.461,0.248,3.964-0.779,3.958-2.654v-0.073c0-1.875-1.616-3.154-3.961-3.313c-1.661-0.111-3.045,0.344-4.318,0.978
		c-1.475-0.875-2.962-1.716-4.438-2.544c0.244-4.153,0.49-8.312,0.734-12.493h18.054c0,2.061,0.003,4.12,0.003,6.177
		c-4.043-0.144-8.092-0.266-12.143-0.378c-0.064,1.279-0.148,2.557-0.224,3.832c1.237-0.485,2.509-0.797,4.316-0.721
		c4.853,0.187,9.25,3.13,9.246,9.088v0.076c0,6.129-4.562,8.971-11.1,8.082C94.215,41.359,90.865,39.466,88.043,36.859"/>
</g>
</svg>
