<?xml version="1.0" encoding="utf-8"?>
<!-- Generator: Adobe Illustrator 16.0.4, SVG Export Plug-In . SVG Version: 6.00 Build 0)  -->
<!DOCTYPE svg PUBLIC "-//W3C//DTD SVG 1.1//EN" "http://www.w3.org/Graphics/SVG/1.1/DTD/svg11.dtd">
<svg version="1.1" id="Layer_1" xmlns="http://www.w3.org/2000/svg" xmlns:xlink="http://www.w3.org/1999/xlink" x="0px" y="0px"
	 width="70px" height="42.132px" viewBox="0 0 70 42.132" enable-background="new 0 0 70 42.132" xml:space="preserve">
<g>
	<polygon fill="#121212" points="31.705,23.141 45.826,8.833 60.028,23.141 68.791,23.141 45.826,0 22.95,23.141 	"/>
	<polygon fill="#121212" points="33.808,10.75 23.143,0 0.178,23.143 8.943,23.143 23.143,8.833 29.438,15.177 	"/>
	<path fill="#121212" d="M0,25.3h4.831c1.309,2.056,2.616,4.043,3.921,5.972c1.314-2.05,2.632-4.034,3.947-5.972h4.832
		c-0.012,4.858-0.027,9.716-0.04,14.571c-1.516,0.119-3.034,0.253-4.549,0.402c0.009-2.866,0.017-5.732,0.024-8.598
		c-1.411,2.012-2.821,4.084-4.229,6.231c-0.033,0.005-0.063,0.006-0.095,0.011c-1.391-1.867-2.781-3.785-4.175-5.772
		c-0.004,3.041-0.008,6.084-0.013,9.126C2.969,41.474,1.483,41.691,0,41.924V25.3z"/>
	<path fill="#121212" d="M19.791,25.3h4.596c-0.01,4.701-0.02,9.4-0.027,14.101c-1.536,0.069-3.072,0.153-4.605,0.255
		C19.765,34.871,19.778,30.086,19.791,25.3"/>
	<path fill="#121212" d="M26.896,25.3h4.572c-0.001,3.506-0.002,7.01-0.004,10.513c2.668-0.025,5.335-0.012,8.002,0.034
		c0.006,1.127,0.006,2.256,0.006,3.382c-4.198-0.096-8.397-0.077-12.595,0.056C26.883,34.623,26.891,29.962,26.896,25.3"/>
	<path fill="#121212" d="M41.41,25.3h13.27c0.003,1.163,0.008,2.325,0.008,3.487c-2.91-0.062-5.827-0.11-8.743-0.147
		c0,0.717,0.004,1.433,0.005,2.146c2.644,0.055,5.282,0.125,7.92,0.213c0.003,1.073,0.006,2.145,0.013,3.218
		c-2.643-0.138-5.284-0.25-7.927-0.333c0.003,0.75,0.005,1.499,0.005,2.249c2.959,0.116,5.916,0.276,8.871,0.48
		c0.002,1.163,0.007,2.325,0.008,3.488c-4.461-0.403-8.932-0.678-13.405-0.816C41.426,34.622,41.42,29.962,41.41,25.3"/>
	<path fill="#121212" d="M55.902,38.76c0.908-0.893,1.816-1.795,2.728-2.713c1.406,1.191,2.74,1.966,4.188,2.109
		c1.575,0.159,2.536-0.499,2.531-1.697v-0.048c0-1.199-1.033-2.017-2.533-2.118c-1.062-0.072-1.947,0.219-2.762,0.624
		c-0.943-0.559-1.894-1.097-2.838-1.626c0.156-2.656,0.313-5.317,0.469-7.991h11.547c0,1.318,0.003,2.635,0.003,3.952
		c-2.587-0.092-5.176-0.17-7.767-0.242c-0.041,0.817-0.095,1.635-0.143,2.451c0.791-0.311,1.604-0.511,2.761-0.461
		c3.104,0.119,5.916,2.002,5.913,5.812v0.049c0,3.92-2.918,5.737-7.098,5.169C59.85,41.637,57.707,40.427,55.902,38.76"/>
</g>
</svg>
