<?xml version="1.0" encoding="utf-8"?>
<!-- Generator: Adobe Illustrator 16.0.4, SVG Export Plug-In . SVG Version: 6.00 Build 0)  -->
<!DOCTYPE svg PUBLIC "-//W3C//DTD SVG 1.1//EN" "http://www.w3.org/Graphics/SVG/1.1/DTD/svg11.dtd">
<svg version="1.1" id="Layer_1" xmlns="http://www.w3.org/2000/svg" xmlns:xlink="http://www.w3.org/1999/xlink" x="0px" y="0px"
	 width="140.582px" height="84.742px" viewBox="0 0 140.582 84.742" enable-background="new 0 0 140.582 84.742"
	 xml:space="preserve">
<g>
	<polygon fill="#2A3E5B" points="64.206,45.404 91.734,17.513 119.417,45.404 136.503,45.404 91.734,0.294 47.138,45.404 	"/>
	<polygon fill="#2A3E5B" points="68.306,21.25 47.515,0.294 2.746,45.408 19.832,45.408 47.515,17.513 59.787,29.879 	"/>
	<path fill="#2A3E5B" d="M2.398,49.615h9.417c2.552,4.007,5.099,7.882,7.645,11.642c2.561-3.996,5.13-7.865,7.694-11.642h9.418
		c-0.022,9.47-0.053,18.939-0.077,28.404c-2.955,0.23-5.915,0.494-8.869,0.783c0.019-5.586,0.034-11.174,0.047-16.76
		c-2.75,3.92-5.5,7.961-8.245,12.145c-0.064,0.012-0.123,0.012-0.184,0.023c-2.712-3.639-5.422-7.379-8.14-11.252
		c-0.007,5.928-0.016,11.859-0.025,17.789c-2.894,0.396-5.792,0.818-8.683,1.273V49.615H2.398z"/>
	<path fill="#2A3E5B" d="M40.98,49.615h8.959c-0.019,9.162-0.039,18.324-0.053,27.488c-2.994,0.135-5.989,0.297-8.978,0.496
		C40.929,68.271,40.954,58.943,40.98,49.615"/>
	<path fill="#2A3E5B" d="M54.832,49.615h8.911c-0.001,6.834-0.004,13.664-0.007,20.494c5.201-0.049,10.4-0.026,15.6,0.064
		c0.014,2.197,0.014,4.398,0.014,6.594c-8.186-0.188-16.37-0.152-24.555,0.109C54.805,67.79,54.822,58.703,54.832,49.615"/>
	<path fill="#2A3E5B" d="M83.126,49.615h25.867c0.008,2.267,0.016,4.529,0.016,6.795c-5.674-0.118-11.358-0.213-17.043-0.284
		c0,1.397,0.008,2.795,0.01,4.187c5.154,0.104,10.298,0.241,15.438,0.413c0.008,2.091,0.015,4.183,0.026,6.271
		c-5.151-0.266-10.301-0.484-15.453-0.646C91.992,67.812,92,69.271,92,70.732c5.766,0.229,11.53,0.541,17.291,0.938
		c0.004,2.266,0.016,4.533,0.017,6.799c-8.698-0.783-17.412-1.32-26.132-1.59C83.156,67.79,83.145,58.703,83.126,49.615"/>
	<path fill="#2A3E5B" d="M111.376,75.852c1.771-1.738,3.539-3.498,5.316-5.287c2.743,2.322,5.342,3.834,8.167,4.111
		c3.068,0.311,4.94-0.971,4.935-3.309v-0.092c0-2.338-2.016-3.935-4.938-4.132c-2.071-0.139-3.797,0.429-5.384,1.22
		c-1.84-1.092-3.693-2.142-5.534-3.172c0.304-5.181,0.61-10.363,0.914-15.576h22.512c0,2.567,0.003,5.137,0.003,7.701
		c-5.041-0.181-10.091-0.332-15.14-0.472c-0.081,1.597-0.187,3.188-0.278,4.777c1.543-0.605,3.127-0.994,5.381-0.898
		c6.051,0.232,11.533,3.902,11.528,11.332v0.095c0,7.643-5.688,11.186-13.839,10.078C119.074,81.464,114.896,79.104,111.376,75.852"
		/>
</g>
<g>
	<polygon fill="#6097BF" points="64.206,47.426 91.734,19.535 119.417,47.426 136.503,47.426 91.734,2.315 47.138,47.426 	"/>
	<polygon fill="#6097BF" points="68.306,23.272 47.515,2.315 2.746,47.43 19.832,47.43 47.515,19.535 59.787,31.901 	"/>
	<path fill="#6097BF" d="M2.398,51.637h9.417c2.552,4.006,5.099,7.881,7.645,11.641c2.561-3.996,5.13-7.865,7.694-11.641h9.418
		c-0.022,9.469-0.053,18.939-0.077,28.404c-2.955,0.23-5.915,0.494-8.869,0.783c0.019-5.586,0.034-11.174,0.047-16.76
		c-2.75,3.92-5.5,7.961-8.245,12.145c-0.064,0.012-0.123,0.012-0.184,0.023c-2.712-3.64-5.422-7.379-8.14-11.252
		c-0.007,5.928-0.016,11.858-0.025,17.788c-2.894,0.396-5.792,0.818-8.683,1.273V51.637H2.398z"/>
	<path fill="#6097BF" d="M40.98,51.637h8.959c-0.019,9.162-0.039,18.324-0.053,27.488c-2.994,0.135-5.989,0.297-8.978,0.496
		C40.929,70.294,40.954,60.966,40.98,51.637"/>
	<path fill="#6097BF" d="M54.832,51.637h8.911c-0.001,6.834-0.004,13.664-0.007,20.494c5.201-0.049,10.4-0.027,15.6,0.064
		c0.014,2.196,0.014,4.397,0.014,6.594c-8.186-0.188-16.37-0.152-24.555,0.109C54.805,69.811,54.822,60.725,54.832,51.637"/>
	<path fill="#6097BF" d="M83.126,51.637h25.867c0.008,2.266,0.016,4.529,0.016,6.795c-5.674-0.119-11.358-0.213-17.043-0.285
		c0,1.398,0.008,2.795,0.01,4.187c5.154,0.104,10.298,0.241,15.438,0.414c0.008,2.09,0.015,4.182,0.026,6.27
		c-5.151-0.266-10.301-0.483-15.453-0.645C91.992,69.833,92,71.292,92,72.753c5.766,0.229,11.53,0.541,17.291,0.938
		c0.004,2.266,0.016,4.532,0.017,6.799c-8.698-0.783-17.412-1.32-26.132-1.59C83.156,69.811,83.145,60.725,83.126,51.637"/>
	<path fill="#6097BF" d="M111.376,77.874c1.771-1.738,3.539-3.498,5.316-5.287c2.743,2.321,5.342,3.834,8.167,4.11
		c3.068,0.312,4.94-0.971,4.935-3.309v-0.092c0-2.338-2.016-3.934-4.938-4.131c-2.071-0.139-3.797,0.428-5.384,1.219
		c-1.84-1.092-3.693-2.141-5.534-3.172c0.304-5.18,0.61-10.363,0.914-15.576h22.512c0,2.568,0.003,5.137,0.003,7.701
		c-5.041-0.18-10.091-0.332-15.14-0.471c-0.081,1.596-0.187,3.188-0.278,4.777c1.543-0.605,3.127-0.994,5.381-0.898
		c6.051,0.232,11.533,3.902,11.528,11.332v0.094c0,7.643-5.688,11.186-13.839,10.078C119.074,83.484,114.896,81.126,111.376,77.874"
		/>
</g>
<g>
	<polygon fill="#364C70" points="64.206,46.254 91.734,18.362 119.417,46.254 136.503,46.254 91.734,1.142 47.138,46.254 	"/>
	<polygon fill="#364C70" points="68.306,22.098 47.515,1.142 2.746,46.258 19.832,46.258 47.515,18.362 59.787,30.727 	"/>
	<path fill="#364C70" d="M2.398,50.464h9.417c2.552,4.007,5.099,7.881,7.645,11.642c2.561-3.996,5.13-7.865,7.694-11.642h9.418
		c-0.022,9.469-0.053,18.94-0.077,28.403c-2.955,0.231-5.915,0.496-8.869,0.783c0.019-5.584,0.034-11.174,0.047-16.76
		c-2.75,3.922-5.5,7.961-8.245,12.146c-0.064,0.012-0.123,0.012-0.184,0.021c-2.712-3.639-5.422-7.378-8.14-11.252
		c-0.007,5.93-0.016,11.86-0.025,17.79c-2.894,0.396-5.792,0.818-8.683,1.272V50.464H2.398z"/>
	<path fill="#364C70" d="M40.98,50.464h8.959c-0.019,9.163-0.039,18.325-0.053,27.489c-2.994,0.134-5.989,0.297-8.978,0.494
		C40.929,69.121,40.954,59.792,40.98,50.464"/>
	<path fill="#364C70" d="M54.832,50.464h8.911c-0.001,6.834-0.004,13.664-0.007,20.494c5.201-0.048,10.4-0.026,15.6,0.065
		c0.014,2.196,0.014,4.397,0.014,6.592c-8.186-0.188-16.37-0.15-24.555,0.109C54.805,68.637,54.822,59.551,54.832,50.464"/>
	<path fill="#364C70" d="M83.126,50.464h25.867c0.008,2.267,0.016,4.53,0.016,6.796c-5.674-0.119-11.358-0.213-17.043-0.286
		c0,1.398,0.008,2.796,0.01,4.187c5.154,0.104,10.298,0.242,15.438,0.414c0.008,2.091,0.015,4.182,0.026,6.271
		c-5.151-0.267-10.301-0.485-15.453-0.646C91.992,68.66,92,70.119,92,71.58c5.766,0.229,11.53,0.542,17.291,0.938
		c0.004,2.266,0.016,4.533,0.017,6.801c-8.698-0.783-17.412-1.32-26.132-1.592C83.156,68.637,83.145,59.551,83.126,50.464"/>
	<path fill="#364C70" d="M111.376,76.701c1.771-1.739,3.539-3.5,5.316-5.289c2.743,2.322,5.342,3.835,8.167,4.113
		c3.068,0.31,4.94-0.973,4.935-3.311v-0.092c0-2.338-2.016-3.934-4.938-4.131c-2.071-0.139-3.797,0.429-5.384,1.219
		c-1.84-1.092-3.693-2.141-5.534-3.171c0.304-5.181,0.61-10.364,0.914-15.577h22.512c0,2.568,0.003,5.137,0.003,7.702
		c-5.041-0.181-10.091-0.332-15.14-0.472c-0.081,1.596-0.187,3.188-0.278,4.777c1.543-0.605,3.127-0.995,5.381-0.898
		c6.051,0.232,11.533,3.902,11.528,11.332v0.095c0,7.643-5.688,11.186-13.839,10.077C119.074,82.312,114.896,79.953,111.376,76.701"
		/>
</g>
</svg>
