<?xml version="1.0" encoding="utf-8"?>
<!-- Generator: Adobe Illustrator 16.0.4, SVG Export Plug-In . SVG Version: 6.00 Build 0)  -->
<!DOCTYPE svg PUBLIC "-//W3C//DTD SVG 1.1//EN" "http://www.w3.org/Graphics/SVG/1.1/DTD/svg11.dtd">
<svg version="1.1" id="Layer_1" xmlns="http://www.w3.org/2000/svg" xmlns:xlink="http://www.w3.org/1999/xlink" x="0px" y="0px"
	 width="140.581px" height="84.742px" viewBox="0.083 -24.176 140.581 84.742"
	 enable-background="new 0.083 -24.176 140.581 84.742" xml:space="preserve">
<g>
	<polygon fill="#121212" points="64.206,22.371 91.734,-5.521 119.418,22.371 136.503,22.371 91.734,-22.741 47.138,22.371 	"/>
	<polygon fill="#121212" points="68.306,-1.785 47.515,-22.741 2.746,22.375 19.832,22.375 47.515,-5.521 59.787,6.844 	"/>
	<path fill="#121212" d="M2.398,26.581h9.417c2.552,4.007,5.099,7.881,7.645,11.641c2.561-3.995,5.13-7.864,7.694-11.641h9.418
		c-0.022,9.469-0.053,18.94-0.077,28.404c-2.955,0.231-5.915,0.495-8.869,0.783c0.019-5.585,0.034-11.174,0.047-16.76
		c-2.75,3.921-5.5,7.961-8.245,12.146c-0.064,0.012-0.123,0.012-0.184,0.022c-2.712-3.639-5.422-7.378-8.14-11.252
		c-0.007,5.929-0.016,11.86-0.025,17.79c-2.894,0.396-5.792,0.818-8.683,1.273V26.581z"/>
	<path fill="#121212" d="M40.98,26.581h8.959c-0.019,9.163-0.039,18.325-0.053,27.489c-2.994,0.134-5.989,0.297-8.978,0.495
		C40.929,45.238,40.954,35.909,40.98,26.581"/>
	<path fill="#121212" d="M54.832,26.581h8.911c-0.001,6.834-0.004,13.664-0.007,20.494c5.201-0.048,10.4-0.026,15.599,0.065
		c0.014,2.197,0.014,4.398,0.014,6.593c-8.186-0.188-16.37-0.151-24.555,0.109C54.805,44.754,54.822,35.668,54.832,26.581"/>
	<path fill="#121212" d="M83.126,26.581h25.868c0.007,2.266,0.015,4.53,0.015,6.796c-5.673-0.119-11.358-0.213-17.042-0.286
		c0,1.398,0.007,2.796,0.009,4.187c5.154,0.104,10.298,0.242,15.438,0.413c0.008,2.091,0.014,4.182,0.026,6.271
		c-5.152-0.267-10.301-0.485-15.453-0.646c0.004,1.462,0.012,2.92,0.012,4.381c5.766,0.23,11.531,0.542,17.292,0.938
		c0.003,2.266,0.015,4.533,0.016,6.8c-8.698-0.783-17.412-1.32-26.131-1.591C83.156,44.754,83.145,35.668,83.126,26.581"/>
	<path fill="#121212" d="M111.377,52.818c1.77-1.739,3.539-3.499,5.316-5.288c2.743,2.322,5.342,3.834,8.167,4.112
		c3.068,0.31,4.941-0.972,4.934-3.31v-0.092c0-2.338-2.015-3.933-4.938-4.131c-2.071-0.139-3.797,0.429-5.384,1.219
		c-1.84-1.091-3.693-2.14-5.534-3.171c0.304-5.18,0.61-10.364,0.914-15.577h22.512c0,2.569,0.003,5.137,0.003,7.702
		c-5.041-0.18-10.091-0.332-15.14-0.472c-0.081,1.596-0.186,3.188-0.278,4.778c1.542-0.605,3.127-0.995,5.381-0.899
		c6.051,0.233,11.533,3.903,11.528,11.332v0.095c0,7.643-5.688,11.186-13.839,10.078C119.073,58.429,114.896,56.07,111.377,52.818"
		/>
</g>
</svg>
